<mxfile host="app.diagrams.net" modified="2022-03-15T07:56:05.724Z" agent="5.0 (Macintosh; Intel Mac OS X 10_15_7) AppleWebKit/537.36 (KHTML, like Gecko) Chrome/99.0.4844.51 Safari/537.36" etag="wvurj6awbyYCNyWWfIri" version="15.9.4" type="github">
  <diagram id="Gvvp7CVzobxA9mraUu26" name="Page-1">
    <mxGraphModel dx="1298" dy="809" grid="1" gridSize="10" guides="1" tooltips="1" connect="1" arrows="1" fold="1" page="1" pageScale="1" pageWidth="827" pageHeight="1169" math="0" shadow="0">
      <root>
        <mxCell id="0" />
        <mxCell id="1" parent="0" />
        <mxCell id="gmb-JLM25UN-HSaWRKSt-3" style="edgeStyle=orthogonalEdgeStyle;rounded=0;orthogonalLoop=1;jettySize=auto;html=1;exitX=1;exitY=0.75;exitDx=0;exitDy=0;entryX=0;entryY=0.75;entryDx=0;entryDy=0;strokeColor=#0000CC;" parent="1" source="gmb-JLM25UN-HSaWRKSt-1" target="gmb-JLM25UN-HSaWRKSt-2" edge="1">
          <mxGeometry relative="1" as="geometry">
            <Array as="points">
              <mxPoint x="199" y="220" />
            </Array>
          </mxGeometry>
        </mxCell>
        <mxCell id="KUg_e7DA-ukjiks3nUzK-2" value="request" style="edgeLabel;html=1;align=center;verticalAlign=middle;resizable=0;points=[];" vertex="1" connectable="0" parent="gmb-JLM25UN-HSaWRKSt-3">
          <mxGeometry x="-0.1077" y="1" relative="1" as="geometry">
            <mxPoint as="offset" />
          </mxGeometry>
        </mxCell>
        <mxCell id="gmb-JLM25UN-HSaWRKSt-1" value="Pull Request" style="rounded=0;whiteSpace=wrap;html=1;" parent="1" vertex="1">
          <mxGeometry x="99" y="191" width="100" height="40" as="geometry" />
        </mxCell>
        <mxCell id="gmb-JLM25UN-HSaWRKSt-7" style="edgeStyle=orthogonalEdgeStyle;rounded=0;orthogonalLoop=1;jettySize=auto;html=1;exitX=1;exitY=0.5;exitDx=0;exitDy=0;entryX=0;entryY=0.5;entryDx=0;entryDy=0;strokeColor=#0000CC;" parent="1" source="gmb-JLM25UN-HSaWRKSt-2" target="gmb-JLM25UN-HSaWRKSt-4" edge="1">
          <mxGeometry relative="1" as="geometry" />
        </mxCell>
        <mxCell id="gmb-JLM25UN-HSaWRKSt-8" style="edgeStyle=orthogonalEdgeStyle;rounded=0;orthogonalLoop=1;jettySize=auto;html=1;exitX=1;exitY=0.5;exitDx=0;exitDy=0;entryX=0;entryY=0.5;entryDx=0;entryDy=0;strokeColor=#0000CC;" parent="1" source="gmb-JLM25UN-HSaWRKSt-2" target="gmb-JLM25UN-HSaWRKSt-5" edge="1">
          <mxGeometry relative="1" as="geometry" />
        </mxCell>
        <mxCell id="gmb-JLM25UN-HSaWRKSt-9" style="edgeStyle=orthogonalEdgeStyle;rounded=0;orthogonalLoop=1;jettySize=auto;html=1;exitX=1;exitY=0.5;exitDx=0;exitDy=0;entryX=0;entryY=0.5;entryDx=0;entryDy=0;strokeColor=#0000CC;" parent="1" source="gmb-JLM25UN-HSaWRKSt-2" target="gmb-JLM25UN-HSaWRKSt-6" edge="1">
          <mxGeometry relative="1" as="geometry" />
        </mxCell>
        <mxCell id="KUg_e7DA-ukjiks3nUzK-3" value="pull request" style="edgeLabel;html=1;align=center;verticalAlign=middle;resizable=0;points=[];" vertex="1" connectable="0" parent="gmb-JLM25UN-HSaWRKSt-9">
          <mxGeometry x="-0.4833" y="1" relative="1" as="geometry">
            <mxPoint as="offset" />
          </mxGeometry>
        </mxCell>
        <mxCell id="KUg_e7DA-ukjiks3nUzK-5" style="edgeStyle=orthogonalEdgeStyle;rounded=0;orthogonalLoop=1;jettySize=auto;html=1;exitX=0;exitY=0.25;exitDx=0;exitDy=0;entryX=1;entryY=0.25;entryDx=0;entryDy=0;strokeColor=#FF0000;" edge="1" parent="1" source="gmb-JLM25UN-HSaWRKSt-2" target="gmb-JLM25UN-HSaWRKSt-1">
          <mxGeometry relative="1" as="geometry" />
        </mxCell>
        <mxCell id="KUg_e7DA-ukjiks3nUzK-7" value="response" style="edgeLabel;html=1;align=center;verticalAlign=middle;resizable=0;points=[];" vertex="1" connectable="0" parent="KUg_e7DA-ukjiks3nUzK-5">
          <mxGeometry x="0.1538" y="1" relative="1" as="geometry">
            <mxPoint x="4" y="-2" as="offset" />
          </mxGeometry>
        </mxCell>
        <mxCell id="gmb-JLM25UN-HSaWRKSt-2" value="TableRoute" style="rounded=0;whiteSpace=wrap;html=1;" parent="1" vertex="1">
          <mxGeometry x="329" y="191" width="100" height="40" as="geometry" />
        </mxCell>
        <mxCell id="KUg_e7DA-ukjiks3nUzK-1" style="edgeStyle=orthogonalEdgeStyle;rounded=0;orthogonalLoop=1;jettySize=auto;html=1;exitX=1;exitY=0.5;exitDx=0;exitDy=0;entryX=0.5;entryY=0;entryDx=0;entryDy=0;strokeColor=#FF0000;" edge="1" parent="1" source="gmb-JLM25UN-HSaWRKSt-4" target="gmb-JLM25UN-HSaWRKSt-2">
          <mxGeometry relative="1" as="geometry">
            <Array as="points">
              <mxPoint x="729" y="151" />
              <mxPoint x="729" y="91" />
              <mxPoint x="379" y="91" />
            </Array>
          </mxGeometry>
        </mxCell>
        <mxCell id="KUg_e7DA-ukjiks3nUzK-4" value="response" style="edgeLabel;html=1;align=center;verticalAlign=middle;resizable=0;points=[];" vertex="1" connectable="0" parent="KUg_e7DA-ukjiks3nUzK-1">
          <mxGeometry x="0.0226" y="-1" relative="1" as="geometry">
            <mxPoint as="offset" />
          </mxGeometry>
        </mxCell>
        <mxCell id="gmb-JLM25UN-HSaWRKSt-4" value="TableService" style="rounded=0;whiteSpace=wrap;html=1;" parent="1" vertex="1">
          <mxGeometry x="609" y="131" width="100" height="40" as="geometry" />
        </mxCell>
        <mxCell id="gmb-JLM25UN-HSaWRKSt-5" value="TableService" style="rounded=0;whiteSpace=wrap;html=1;" parent="1" vertex="1">
          <mxGeometry x="609" y="191" width="100" height="40" as="geometry" />
        </mxCell>
        <mxCell id="gmb-JLM25UN-HSaWRKSt-6" value="TableService" style="rounded=0;whiteSpace=wrap;html=1;" parent="1" vertex="1">
          <mxGeometry x="609" y="251" width="100" height="40" as="geometry" />
        </mxCell>
        <mxCell id="KUg_e7DA-ukjiks3nUzK-8" style="edgeStyle=orthogonalEdgeStyle;rounded=0;orthogonalLoop=1;jettySize=auto;html=1;exitX=1;exitY=0.75;exitDx=0;exitDy=0;entryX=0;entryY=0.75;entryDx=0;entryDy=0;strokeColor=#0000CC;" edge="1" parent="1" source="KUg_e7DA-ukjiks3nUzK-10" target="KUg_e7DA-ukjiks3nUzK-17">
          <mxGeometry relative="1" as="geometry">
            <Array as="points">
              <mxPoint x="199" y="489" />
            </Array>
          </mxGeometry>
        </mxCell>
        <mxCell id="KUg_e7DA-ukjiks3nUzK-9" value="request" style="edgeLabel;html=1;align=center;verticalAlign=middle;resizable=0;points=[];" vertex="1" connectable="0" parent="KUg_e7DA-ukjiks3nUzK-8">
          <mxGeometry x="-0.1077" y="1" relative="1" as="geometry">
            <mxPoint as="offset" />
          </mxGeometry>
        </mxCell>
        <mxCell id="KUg_e7DA-ukjiks3nUzK-10" value="Push Request" style="rounded=0;whiteSpace=wrap;html=1;" vertex="1" parent="1">
          <mxGeometry x="99" y="460" width="100" height="40" as="geometry" />
        </mxCell>
        <mxCell id="KUg_e7DA-ukjiks3nUzK-11" style="edgeStyle=orthogonalEdgeStyle;rounded=0;orthogonalLoop=1;jettySize=auto;html=1;exitX=1;exitY=0.5;exitDx=0;exitDy=0;entryX=0;entryY=0.5;entryDx=0;entryDy=0;strokeColor=#0000CC;" edge="1" parent="1" source="KUg_e7DA-ukjiks3nUzK-17" target="KUg_e7DA-ukjiks3nUzK-20">
          <mxGeometry relative="1" as="geometry" />
        </mxCell>
        <mxCell id="KUg_e7DA-ukjiks3nUzK-12" style="edgeStyle=orthogonalEdgeStyle;rounded=0;orthogonalLoop=1;jettySize=auto;html=1;exitX=1;exitY=0.5;exitDx=0;exitDy=0;entryX=0;entryY=0.5;entryDx=0;entryDy=0;strokeColor=#0000CC;" edge="1" parent="1" source="KUg_e7DA-ukjiks3nUzK-17" target="KUg_e7DA-ukjiks3nUzK-21">
          <mxGeometry relative="1" as="geometry" />
        </mxCell>
        <mxCell id="KUg_e7DA-ukjiks3nUzK-13" style="edgeStyle=orthogonalEdgeStyle;rounded=0;orthogonalLoop=1;jettySize=auto;html=1;exitX=1;exitY=0.5;exitDx=0;exitDy=0;entryX=0;entryY=0.5;entryDx=0;entryDy=0;strokeColor=#0000CC;" edge="1" parent="1" source="KUg_e7DA-ukjiks3nUzK-17" target="KUg_e7DA-ukjiks3nUzK-22">
          <mxGeometry relative="1" as="geometry" />
        </mxCell>
        <mxCell id="KUg_e7DA-ukjiks3nUzK-14" value="push request" style="edgeLabel;html=1;align=center;verticalAlign=middle;resizable=0;points=[];" vertex="1" connectable="0" parent="KUg_e7DA-ukjiks3nUzK-13">
          <mxGeometry x="-0.4833" y="1" relative="1" as="geometry">
            <mxPoint as="offset" />
          </mxGeometry>
        </mxCell>
        <mxCell id="KUg_e7DA-ukjiks3nUzK-15" style="edgeStyle=orthogonalEdgeStyle;rounded=0;orthogonalLoop=1;jettySize=auto;html=1;exitX=0;exitY=0.25;exitDx=0;exitDy=0;entryX=1;entryY=0.25;entryDx=0;entryDy=0;strokeColor=#FF0000;" edge="1" parent="1" source="KUg_e7DA-ukjiks3nUzK-17" target="KUg_e7DA-ukjiks3nUzK-10">
          <mxGeometry relative="1" as="geometry" />
        </mxCell>
        <mxCell id="KUg_e7DA-ukjiks3nUzK-16" value="response" style="edgeLabel;html=1;align=center;verticalAlign=middle;resizable=0;points=[];" vertex="1" connectable="0" parent="KUg_e7DA-ukjiks3nUzK-15">
          <mxGeometry x="0.1538" y="1" relative="1" as="geometry">
            <mxPoint x="4" y="-2" as="offset" />
          </mxGeometry>
        </mxCell>
        <mxCell id="KUg_e7DA-ukjiks3nUzK-17" value="TableRoute" style="rounded=0;whiteSpace=wrap;html=1;" vertex="1" parent="1">
          <mxGeometry x="329" y="460" width="100" height="40" as="geometry" />
        </mxCell>
        <mxCell id="KUg_e7DA-ukjiks3nUzK-18" style="edgeStyle=orthogonalEdgeStyle;rounded=0;orthogonalLoop=1;jettySize=auto;html=1;exitX=1;exitY=0.5;exitDx=0;exitDy=0;entryX=0.5;entryY=0;entryDx=0;entryDy=0;strokeColor=#FF0000;" edge="1" parent="1" source="KUg_e7DA-ukjiks3nUzK-20" target="KUg_e7DA-ukjiks3nUzK-17">
          <mxGeometry relative="1" as="geometry">
            <Array as="points">
              <mxPoint x="729" y="420" />
              <mxPoint x="729" y="360" />
              <mxPoint x="379" y="360" />
            </Array>
          </mxGeometry>
        </mxCell>
        <mxCell id="KUg_e7DA-ukjiks3nUzK-19" value="response" style="edgeLabel;html=1;align=center;verticalAlign=middle;resizable=0;points=[];" vertex="1" connectable="0" parent="KUg_e7DA-ukjiks3nUzK-18">
          <mxGeometry x="0.0226" y="-1" relative="1" as="geometry">
            <mxPoint as="offset" />
          </mxGeometry>
        </mxCell>
        <mxCell id="KUg_e7DA-ukjiks3nUzK-20" value="TableService" style="rounded=0;whiteSpace=wrap;html=1;" vertex="1" parent="1">
          <mxGeometry x="609" y="400" width="100" height="40" as="geometry" />
        </mxCell>
        <mxCell id="KUg_e7DA-ukjiks3nUzK-21" value="TableService" style="rounded=0;whiteSpace=wrap;html=1;" vertex="1" parent="1">
          <mxGeometry x="609" y="460" width="100" height="40" as="geometry" />
        </mxCell>
        <mxCell id="KUg_e7DA-ukjiks3nUzK-22" value="TableService" style="rounded=0;whiteSpace=wrap;html=1;" vertex="1" parent="1">
          <mxGeometry x="609" y="520" width="100" height="40" as="geometry" />
        </mxCell>
      </root>
    </mxGraphModel>
  </diagram>
</mxfile>
